<svg xmlns="http://www.w3.org/2000/svg" viewBox="-22 -8 140 140"><circle cx="48" cy="62" r="70" fill="#000000"/><rect x="0" y="30.59" width="23.088" height="93.361" fill="#ffffff"/><path d="M95.491,35.929c0-19.81-16.132-35.928-35.962-35.928H0v19.938h56.699c8.974,0,16.408,7.05,16.572,15.715 c0.082,4.339-1.546,8.434-4.585,11.53c-3.04,3.097-7.102,4.804-11.437,4.804H35.162c-0.784,0-1.423,0.637-1.423,1.421v17.72 c0,0.301,0.093,0.589,0.268,0.832l37.474,51.989h27.432L61.353,71.82C80.268,70.87,95.491,54.977,95.491,35.929z" fill="#ffffff"/></svg>